<?xml version="1.0" standalone="no"?>
<!DOCTYPE svg PUBLIC "-//W3C//DTD SVG 20010904//EN"
 "http://www.w3.org/TR/2001/REC-SVG-20010904/DTD/svg10.dtd">
<svg version="1.0" xmlns="http://www.w3.org/2000/svg"
 width="512.000000pt" height="512.000000pt" viewBox="0 0 512.000000 512.000000"
 preserveAspectRatio="xMidYMid meet">

<g transform="translate(0.000000,512.000000) scale(0.100000,-0.100000)"
fill="#000000" stroke="none">
<path d="M1687 4708 c-30 -7 -47 -15 -44 -22 3 -7 55 -167 117 -356 62 -189
114 -349 117 -355 3 -9 -44 -14 -166 -18 -184 -7 -223 -16 -275 -65 -63 -59
-84 -167 -47 -247 21 -48 76 -99 123 -114 43 -14 1942 -23 2010 -9 61 12 122
57 150 110 43 83 23 203 -44 264 -54 50 -85 58 -241 62 -121 3 -147 7 -143 18
3 8 56 168 117 356 61 189 114 348 116 354 4 11 -132 43 -140 33 -2 -2 -59
-174 -127 -381 l-124 -378 -526 0 -526 0 -124 380 c-140 428 -117 390 -223
368z"/>
<path d="M2480 2818 c0 -3 39 -18 87 -33 267 -83 490 -274 602 -516 104 -223
119 -496 41 -726 -105 -309 -361 -548 -676 -630 l-69 -18 83 -3 c167 -6 360
47 513 140 112 68 260 216 323 323 59 101 100 207 121 314 24 115 16 334 -14
440 -60 206 -186 390 -355 518 -82 62 -242 138 -346 163 -79 19 -310 40 -310
28z"/>
</g>
</svg>
